<?xml version="1.0" encoding="UTF-8"?>
<svg width="513px" height="402px" viewBox="0 0 513 402" version="1.1" xmlns="http://www.w3.org/2000/svg" xmlns:xlink="http://www.w3.org/1999/xlink">
    <!-- Generator: Sketch 45.1 (43504) - http://www.bohemiancoding.com/sketch -->
    <title>Group</title>
    <desc>Created with Sketch.</desc>
    <defs></defs>
    <g id="Page-1" stroke="none" stroke-width="1" fill="none" fill-rule="evenodd">
        <g id="Group">
            <g id="gmail" fill-rule="nonzero">
                <path d="M512,50.739 L512,351.261 C512,378.976 489.628,401.348 461.913,401.348 L50.087,401.348 C22.372,401.348 0,378.976 0,351.261 L0,50.739 C0,49.849 0,48.958 0.111,48.068 C1.447,22.468 21.815,2.099 47.415,0.764 C48.305,0.653 49.196,0.653 50.086,0.653 L461.912,0.653 C462.802,0.653 463.804,0.653 464.695,0.764 C490.184,2.1 510.552,22.468 511.888,47.957 C512,48.847 512,49.849 512,50.739 Z" id="Shape" fill="#E6F3FF"></path>
                <path d="M464.696,0.763 C463.804,0.652 462.805,0.652 461.913,0.652 L256,0.652 L256,401.348 L461.913,401.348 C489.628,401.348 512,378.976 512,351.261 L512,50.739 C512,49.849 512,48.847 511.889,47.956 C510.553,22.468 490.184,2.099 464.696,0.763 Z" id="Shape" fill="#CFDBE6"></path>
                <path d="M511.889,47.957 C510.553,22.468 490.185,2.1 464.696,0.764 C382.89,82.569 336.951,128.509 256,209.459 C225.291,178.732 77.61,30.958 47.416,0.763 C21.816,2.099 1.447,22.467 0.112,48.067 C0,48.958 0,49.849 0,50.739 L0,351.261 C0,378.976 22.372,401.348 50.087,401.348 L66.783,401.348 L66.783,114.739 L232.404,280.249 C238.86,286.816 247.43,290.044 256.001,290.044 C264.571,290.044 273.142,286.816 279.598,280.249 L445.219,114.628 L445.219,401.348 L461.915,401.348 C489.63,401.348 512.002,378.976 512.002,351.261 L512.002,50.739 C512,49.849 512,48.847 511.889,47.957 Z" id="Shape" fill="#FF4B26"></path>
                <path d="M279.596,280.249 L445.217,114.628 L445.217,401.348 L461.913,401.348 C489.628,401.348 512,378.976 512,351.261 L512,50.739 C512,49.849 512,48.847 511.889,47.956 C510.553,22.467 490.185,2.099 464.696,0.763 C382.891,82.569 336.951,128.509 256,209.459 L256,290.043 C264.57,290.043 273.141,286.816 279.596,280.249 Z" id="Shape" fill="#D93F21"></path>
            </g>
            <rect id="Rectangle" fill="#FFFFFF" style="mix-blend-mode: color;" x="0" y="0" width="513" height="402"></rect>
        </g>
    </g>
</svg>