<?xml version="1.0" encoding="UTF-8"?>
<svg width="410px" height="428px" viewBox="0 0 410 428" version="1.1" xmlns="http://www.w3.org/2000/svg" xmlns:xlink="http://www.w3.org/1999/xlink">
    <!-- Generator: Sketch 45.1 (43504) - http://www.bohemiancoding.com/sketch -->
    <title>Group</title>
    <desc>Created with Sketch.</desc>
    <defs></defs>
    <g id="Page-1" stroke="none" stroke-width="1" fill="none" fill-rule="evenodd">
        <g id="Group">
            <g id="quora" fill-rule="nonzero" fill="#CF2217">
                <path d="M377.516,335.593 C377.516,335.593 375.423,366.292 347.515,366.292 C325.962,366.292 311.243,349.853 297.46,328.506 C336.608,294.335 361.468,243.307 361.468,186.285 C361.469,83.403 280.565,0 180.765,0 C80.965,0 0.061,83.403 0.061,186.286 C0.061,289.169 80.965,372.572 180.765,372.572 C198.877,372.572 216.36,369.813 232.857,364.701 C253.728,397.858 280.223,427.671 321.7,427.671 C406.121,427.671 409.61,335.594 409.61,335.594 L377.516,335.594 L377.516,335.593 L377.516,335.593 Z M180.765,341.873 C122.58,341.873 75.412,272.214 75.412,186.286 C75.412,100.358 122.58,30.699 180.765,30.699 C238.95,30.699 286.117,100.358 286.117,186.286 C286.117,220.455 278.653,252.045 266.009,277.712 C251.726,257.32 234.581,239.955 210.068,234.427 C166.583,224.622 129.135,244.195 117.274,253.963 L128.437,276.987 C128.437,276.987 139.722,270.499 167.704,276.979 C185.335,281.062 199.036,305.53 214.738,333.602 C204.08,338.962 192.653,341.873 180.765,341.873 Z" id="Shape"></path>
            </g>
            <rect id="Rectangle" fill="#FFFFFF" style="mix-blend-mode: color;" x="0" y="0" width="410" height="428"></rect>
        </g>
    </g>
</svg>