<?xml version="1.0" encoding="UTF-8"?>
<svg width="401px" height="351px" viewBox="0 0 401 351" version="1.1" xmlns="http://www.w3.org/2000/svg" xmlns:xlink="http://www.w3.org/1999/xlink">
    <!-- Generator: Sketch 45.1 (43504) - http://www.bohemiancoding.com/sketch -->
    <title>Group</title>
    <desc>Created with Sketch.</desc>
    <defs></defs>
    <g id="Page-1" stroke="none" stroke-width="1" fill="none" fill-rule="evenodd">
        <g id="Group">
            <g id="skype" fill-rule="nonzero" fill="#00AAF2">
                <path d="M384.762,206.039 C378.401,197.247 375.453,186.509 375.465,175.657 C375.466,175.594 375.466,175.531 375.466,175.467 C375.466,78.818 297.116,0.468 200.467,0.468 C179.324,0.468 159.065,4.231 140.305,11.108 C130.156,14.828 119.038,15.543 108.633,12.612 C99.442,10.023 89.624,8.931 79.453,9.631 C36.728,12.571 2.332,47.586 0.118,90.355 C-0.939,110.769 5.183,129.706 16.171,144.894 C22.532,153.686 25.48,164.424 25.467,175.276 C25.467,175.339 25.467,175.402 25.467,175.466 C25.467,272.115 103.816,350.465 200.466,350.465 C221.61,350.465 241.869,346.702 260.628,339.825 C270.777,336.105 281.895,335.39 292.3,338.321 C301.491,340.91 311.308,342.002 321.48,341.302 C364.205,338.362 398.6,303.348 400.815,260.58 C401.872,240.166 395.75,221.228 384.762,206.039 Z M206.873,144.093 C242.159,152.484 295.481,165.164 295.481,223.899 C295.481,252.833 281.232,274.905 255.357,286.048 C236.893,294 215.996,295.073 197.989,295.073 C142.653,295.073 107.703,252.045 106.242,250.213 C97.18,238.847 99.045,222.285 110.412,213.223 C121.776,204.157 138.338,206.027 147.402,217.39 C147.483,217.487 168.384,241.491 197.989,242.43 C233.639,243.561 241.784,232.954 242.837,223.9 C244.124,212.842 234.287,204.724 194.691,195.308 C161.129,187.326 110.404,175.264 110.404,121.171 C110.404,104.326 117.255,49.364 205.417,49.364 C261.085,49.364 293.944,93.193 295.316,95.059 C303.926,106.772 301.412,123.248 289.699,131.857 C278.037,140.429 261.665,137.976 253.022,126.405 C252.402,125.608 233.593,104.682 205.417,102.007 C184.097,99.982 163.047,107.67 163.047,119.027 C163.047,131.06 169.092,135.108 206.873,144.093 Z" id="Shape"></path>
            </g>
            <rect id="Rectangle" fill="#FFFFFF" style="mix-blend-mode: color;" x="0" y="0" width="401" height="351"></rect>
        </g>
    </g>
</svg>