<?xml version="1.0" encoding="UTF-8"?>
<svg width="394px" height="335px" viewBox="0 0 394 335" version="1.1" xmlns="http://www.w3.org/2000/svg" xmlns:xlink="http://www.w3.org/1999/xlink">
    <!-- Generator: Sketch 45.1 (43504) - http://www.bohemiancoding.com/sketch -->
    <title>Group</title>
    <desc>Created with Sketch.</desc>
    <defs></defs>
    <g id="Page-1" stroke="none" stroke-width="1" fill="none" fill-rule="evenodd">
        <g id="Group">
            <g id="stackoverflow" transform="translate(60.991021, 6.341797)" fill-rule="nonzero">
                <polygon id="Shape" fill="#BCBBBB" points="230.310664 293.373781 230.310664 207.148378 258.928578 207.148378 258.928578 321.991694 0.624032132 321.991694 0.624032132 207.148378 29.2419458 207.148378 29.2419458 293.373781"></polygon>
                <path d="M60.8331492,198.971832 L201.321089,228.333068 L207.267669,200.086815 L66.7797287,170.725579 L60.8331492,198.971832 Z M79.4162101,132.072813 L209.497636,192.653591 L221.390795,166.637306 L91.309369,105.684866 L79.4162101,132.072813 Z M115.467348,68.1470833 L225.850729,159.947404 L244.062129,138.019392 L133.678748,46.2190715 L115.467348,68.1470833 Z M186.826302,0.133080614 L163.783306,17.2294966 L249.265386,132.444474 L272.308381,115.348058 L186.826302,0.133080614 Z M57.8598595,264.384206 L201.321089,264.384206 L201.321089,235.766292 L57.8598595,235.766292 L57.8598595,264.384206 Z" id="Shape" fill="#F48023"></path>
            </g>
            <rect id="Rectangle" fill="#FFFFFF" style="mix-blend-mode: color;" x="0" y="0" width="394" height="335"></rect>
        </g>
    </g>
</svg>